<svg width="32" height="32" viewBox="0 0 32 32" fill="none" xmlns="http://www.w3.org/2000/svg">
<rect width="32" height="32" fill="#EDEDED"/>
<path d="M2.7239 7L2.7239 3.72727H3.20969V4.22159H3.24379C3.30344 4.05966 3.4114 3.92827 3.56765 3.82741C3.7239 3.72656 3.90004 3.67614 4.09606 3.67614C4.13299 3.67614 4.17915 3.67685 4.23455 3.67827C4.28995 3.67969 4.33185 3.68182 4.36026 3.68466V4.19602C4.34322 4.19176 4.30415 4.18537 4.24308 4.17685C4.18342 4.1669 4.12021 4.16193 4.05344 4.16193C3.89435 4.16193 3.75231 4.19531 3.62731 4.26207C3.50373 4.32741 3.40572 4.41832 3.33327 4.5348C3.26225 4.64986 3.22674 4.78125 3.22674 4.92898L3.22674 7H2.7239ZM6.18626 7.06818C5.8908 7.06818 5.63157 6.99787 5.40856 6.85724C5.18697 6.71662 5.01367 6.51989 4.88867 6.26705C4.76509 6.0142 4.7033 5.71875 4.7033 5.38068C4.7033 5.03977 4.76509 4.74219 4.88867 4.48793C5.01367 4.23366 5.18697 4.03622 5.40856 3.8956C5.63157 3.75497 5.8908 3.68466 6.18626 3.68466C6.48171 3.68466 6.74023 3.75497 6.96183 3.8956C7.18484 4.03622 7.35813 4.23366 7.48171 4.48793C7.60671 4.74219 7.66921 5.03977 7.66921 5.38068C7.66921 5.71875 7.60671 6.0142 7.48171 6.26705C7.35813 6.51989 7.18484 6.71662 6.96183 6.85724C6.74023 6.99787 6.48171 7.06818 6.18626 7.06818ZM6.18626 6.61648C6.41069 6.61648 6.59535 6.55895 6.74023 6.44389C6.88512 6.32884 6.99237 6.17756 7.06197 5.99006C7.13157 5.80256 7.16637 5.59943 7.16637 5.38068C7.16637 5.16193 7.13157 4.9581 7.06197 4.76918C6.99237 4.58026 6.88512 4.42756 6.74023 4.31108C6.59535 4.1946 6.41069 4.13636 6.18626 4.13636C5.96183 4.13636 5.77717 4.1946 5.63228 4.31108C5.48739 4.42756 5.38015 4.58026 5.31055 4.76918C5.24094 4.9581 5.20614 5.16193 5.20614 5.38068C5.20614 5.59943 5.24094 5.80256 5.31055 5.99006C5.38015 6.17756 5.48739 6.32884 5.63228 6.44389C5.77717 6.55895 5.96183 6.61648 6.18626 6.61648ZM9.76634 7.06818C9.47088 7.06818 9.21165 6.99787 8.98864 6.85724C8.76705 6.71662 8.59375 6.51989 8.46875 6.26705C8.34517 6.0142 8.28338 5.71875 8.28338 5.38068C8.28338 5.03977 8.34517 4.74219 8.46875 4.48793C8.59375 4.23366 8.76705 4.03622 8.98864 3.8956C9.21165 3.75497 9.47088 3.68466 9.76634 3.68466C10.0618 3.68466 10.3203 3.75497 10.5419 3.8956C10.7649 4.03622 10.9382 4.23366 11.0618 4.48793C11.1868 4.74219 11.2493 5.03977 11.2493 5.38068C11.2493 5.71875 11.1868 6.0142 11.0618 6.26705C10.9382 6.51989 10.7649 6.71662 10.5419 6.85724C10.3203 6.99787 10.0618 7.06818 9.76634 7.06818ZM9.76634 6.61648C9.99077 6.61648 10.1754 6.55895 10.3203 6.44389C10.4652 6.32884 10.5724 6.17756 10.642 5.99006C10.7116 5.80256 10.7464 5.59943 10.7464 5.38068C10.7464 5.16193 10.7116 4.9581 10.642 4.76918C10.5724 4.58026 10.4652 4.42756 10.3203 4.31108C10.1754 4.1946 9.99077 4.13636 9.76634 4.13636C9.5419 4.13636 9.35724 4.1946 9.21236 4.31108C9.06747 4.42756 8.96023 4.58026 8.89062 4.76918C8.82102 4.9581 8.78622 5.16193 8.78622 5.38068C8.78622 5.59943 8.82102 5.80256 8.89062 5.99006C8.96023 6.17756 9.06747 6.32884 9.21236 6.44389C9.35724 6.55895 9.5419 6.61648 9.76634 6.61648ZM13.4402 3.72727V4.15341H11.7441V3.72727H13.4402ZM12.2385 2.94318H12.7413V6.0625C12.7413 6.20455 12.7619 6.31108 12.8031 6.3821C12.8457 6.4517 12.8997 6.49858 12.965 6.52273C13.0318 6.54545 13.1021 6.55682 13.176 6.55682C13.2314 6.55682 13.2768 6.55398 13.3123 6.5483C13.3478 6.54119 13.3762 6.53551 13.3975 6.53125L13.4998 6.98295C13.4657 6.99574 13.4181 7.00852 13.3571 7.02131C13.296 7.03551 13.2186 7.04261 13.1248 7.04261C12.9828 7.04261 12.8436 7.01207 12.7072 6.95099C12.5723 6.88991 12.46 6.79687 12.3706 6.67187C12.2825 6.54687 12.2385 6.3892 12.2385 6.19886V2.94318Z" fill="#D1D1D1"/>
</svg>
