<svg width="32" height="32" viewBox="0 0 32 32" fill="none" xmlns="http://www.w3.org/2000/svg">
<rect width="32" height="32" fill="#EDEDED"/>
<path d="M2.52841 7L2.52841 2.63636H3.03125V4.24716H3.07386C3.1108 4.19034 3.16193 4.1179 3.22727 4.02983C3.29403 3.94034 3.3892 3.8608 3.51278 3.79119C3.63778 3.72017 3.80682 3.68466 4.01989 3.68466C4.29545 3.68466 4.53835 3.75355 4.74858 3.89134C4.95881 4.02912 5.12287 4.22443 5.24077 4.47727C5.35866 4.73011 5.41761 5.02841 5.41761 5.37216C5.41761 5.71875 5.35866 6.01918 5.24077 6.27344C5.12287 6.52628 4.95952 6.7223 4.75071 6.86151C4.5419 6.99929 4.30114 7.06818 4.02841 7.06818C3.81818 7.06818 3.64986 7.03338 3.52344 6.96378C3.39702 6.89276 3.29972 6.8125 3.23153 6.72301C3.16335 6.6321 3.1108 6.55682 3.07386 6.49716H3.0142L3.0142 7H2.52841ZM3.02273 5.36364C3.02273 5.6108 3.05895 5.82884 3.13139 6.01776C3.20384 6.20526 3.30966 6.35227 3.44886 6.45881C3.58807 6.56392 3.75852 6.61648 3.96023 6.61648C4.17045 6.61648 4.34588 6.56108 4.48651 6.45028C4.62855 6.33807 4.73509 6.1875 4.80611 5.99858C4.87855 5.80824 4.91477 5.59659 4.91477 5.36364C4.91477 5.13352 4.87926 4.92614 4.80824 4.74148C4.73864 4.5554 4.63281 4.40838 4.49077 4.30043C4.35014 4.19105 4.1733 4.13636 3.96023 4.13636C3.75568 4.13636 3.58381 4.18821 3.4446 4.2919C3.3054 4.39418 3.20028 4.53764 3.12926 4.7223C3.05824 4.90554 3.02273 5.11932 3.02273 5.36364ZM6.68963 2.63636V7H6.18679V2.63636H6.68963ZM8.57369 7.0767C8.3663 7.0767 8.17809 7.03764 8.00906 6.95952C7.84002 6.87997 7.70579 6.76562 7.60636 6.61648C7.50692 6.46591 7.45721 6.28409 7.45721 6.07102C7.45721 5.88352 7.49414 5.73153 7.568 5.61506C7.64187 5.49716 7.74059 5.40483 7.86417 5.33807C7.98775 5.27131 8.12411 5.22159 8.27326 5.18892C8.42383 5.15483 8.57511 5.12784 8.7271 5.10795C8.92596 5.08239 9.08718 5.06321 9.21076 5.05043C9.33576 5.03622 9.42667 5.01278 9.48349 4.98011C9.54173 4.94744 9.57085 4.89062 9.57085 4.80966V4.79261C9.57085 4.58239 9.51332 4.41903 9.39826 4.30256C9.28462 4.18608 9.11204 4.12784 8.8805 4.12784C8.64045 4.12784 8.45224 4.1804 8.31587 4.28551C8.17951 4.39062 8.08363 4.50284 8.02823 4.62216L7.55096 4.4517C7.63619 4.25284 7.74982 4.09801 7.89187 3.98722C8.03533 3.875 8.19158 3.79687 8.36062 3.75284C8.53107 3.70739 8.69869 3.68466 8.86346 3.68466C8.96857 3.68466 9.08931 3.69744 9.22567 3.72301C9.36346 3.74716 9.49627 3.79759 9.62411 3.87429C9.75337 3.95099 9.86062 4.06676 9.94585 4.22159C10.0311 4.37642 10.0737 4.58381 10.0737 4.84375V7L9.57085 7V6.55682H9.54528C9.51119 6.62784 9.45437 6.70384 9.37482 6.7848C9.29528 6.86577 9.18945 6.93466 9.05735 6.99148C8.92525 7.0483 8.76403 7.0767 8.57369 7.0767ZM8.65039 6.625C8.84925 6.625 9.01687 6.58594 9.15323 6.50781C9.29102 6.42969 9.39471 6.32884 9.46431 6.20526C9.53533 6.08168 9.57085 5.9517 9.57085 5.81534V5.35511C9.54954 5.38068 9.50266 5.40412 9.43022 5.42543C9.3592 5.44531 9.27681 5.46307 9.18306 5.47869C9.09073 5.4929 9.00053 5.50568 8.91246 5.51705C8.82582 5.52699 8.7555 5.53551 8.70153 5.54261C8.57085 5.55966 8.44869 5.58736 8.33505 5.62571C8.22283 5.66264 8.13192 5.71875 8.06232 5.79403C7.99414 5.8679 7.96005 5.96875 7.96005 6.09659C7.96005 6.27131 8.02468 6.40341 8.15394 6.4929C8.28462 6.58097 8.45011 6.625 8.65039 6.625ZM11.4943 5.03125V7H10.9915V3.72727H11.4773V4.23864H11.5199C11.5966 4.07244 11.7131 3.93892 11.8693 3.83807C12.0256 3.7358 12.2273 3.68466 12.4744 3.68466C12.696 3.68466 12.8899 3.73011 13.0561 3.82102C13.2223 3.91051 13.3516 4.04688 13.4439 4.23011C13.5362 4.41193 13.5824 4.64205 13.5824 4.92045V7H13.0795V4.95455C13.0795 4.69744 13.0128 4.49716 12.8793 4.35369C12.7457 4.20881 12.5625 4.13636 12.3295 4.13636C12.169 4.13636 12.0256 4.17116 11.8991 4.24077C11.7741 4.31037 11.6754 4.41193 11.603 4.54545C11.5305 4.67898 11.4943 4.84091 11.4943 5.03125ZM14.97 5.80682L14.9615 5.18466H15.0637L16.4956 3.72727H17.1177L15.5922 5.26989H15.5495L14.97 5.80682ZM14.5012 7V2.63636H15.0041V7H14.5012ZM16.5808 7L15.3024 5.38068L15.6603 5.03125L17.22 7H16.5808Z" fill="#D1D1D1"/>
</svg>
